<?xml version="1.0" standalone="no"?>
<!DOCTYPE svg PUBLIC "-//W3C//DTD SVG 20010904//EN"
 "http://www.w3.org/TR/2001/REC-SVG-20010904/DTD/svg10.dtd">
<svg version="1.0" xmlns="http://www.w3.org/2000/svg"
 width="512.000000pt" height="512.000000pt" viewBox="0 0 512.000000 512.000000"
 preserveAspectRatio="xMidYMid meet">
<metadata>
Created by potrace 1.11, written by Peter Selinger 2001-2013
</metadata>
<g transform="translate(0.000000,512.000000) scale(0.100000,-0.100000)"
fill="#000000" stroke="none">
<path d="M2200 5105 c-553 -81 -1032 -314 -1419 -690 -397 -385 -641 -854
-743 -1429 -40 -224 -40 -619 0 -842 103 -576 346 -1044 743 -1429 396 -384
881 -616 1459 -697 125 -17 525 -17 650 0 578 81 1063 313 1459 697 404 392
652 876 748 1460 26 158 26 622 0 780 -96 584 -344 1068 -748 1460 -389 377
-873 612 -1424 690 -127 18 -602 18 -725 0z m854 -377 c-6 -10 -4 -10 8 0 14
11 18 10 26 -4 9 -15 14 -16 36 -6 29 13 29 13 46 -50 14 -53 46 -91 102 -119
48 -24 50 -24 87 7 l30 25 21 -33 c25 -41 25 -49 1 -80 -45 -57 -36 -102 34
-177 49 -52 65 -91 65 -156 0 -92 54 -151 227 -250 75 -43 95 -50 141 -50 47
0 57 4 75 28 12 15 31 39 43 54 l21 26 31 -23 c26 -19 32 -31 32 -59 0 -27 9
-45 32 -70 22 -24 28 -36 19 -39 -8 -3 -9 -7 -3 -11 14 -8 -4 -104 -29 -153
-11 -21 -19 -58 -19 -84 0 -39 5 -51 33 -77 19 -18 49 -41 68 -52 30 -18 35
-27 43 -78 7 -52 6 -64 -18 -117 -26 -57 -26 -62 -14 -119 11 -55 10 -65 -9
-113 -12 -29 -27 -73 -33 -98 -7 -24 -31 -80 -53 -125 -39 -74 -42 -86 -42
-160 0 -74 3 -86 42 -160 22 -45 46 -101 53 -125 6 -25 21 -69 33 -98 19 -48
20 -58 9 -113 -12 -57 -12 -62 14 -119 24 -53 25 -65 18 -117 -8 -51 -13 -60
-43 -78 -19 -11 -49 -34 -68 -52 -28 -26 -33 -38 -33 -77 0 -26 8 -63 19 -84
25 -48 43 -146 29 -151 -6 -2 -5 -6 2 -11 10 -6 4 -17 -19 -41 -23 -25 -31
-44 -31 -70 0 -28 -6 -40 -32 -59 l-31 -23 -21 27 c-67 85 -61 81 -118 81 -46
0 -66 -7 -141 -50 -173 -99 -227 -158 -227 -250 0 -65 -16 -104 -65 -156 -70
-75 -79 -120 -34 -177 24 -31 24 -39 -1 -80 l-21 -33 -30 25 c-37 31 -39 31
-87 7 -56 -28 -88 -66 -102 -119 -17 -63 -17 -63 -46 -50 -22 10 -27 9 -36 -6
-8 -14 -12 -15 -26 -4 -12 10 -14 10 -8 0 4 -7 1 -12 -8 -12 -9 0 -16 7 -16
15 0 8 4 15 8 15 31 0 53 193 32 278 -15 64 -37 93 -105 137 -61 39 -78 65
-95 150 -24 119 -60 172 -137 201 -39 15 -54 16 -128 5 -72 -11 -91 -11 -138
3 -30 9 -71 16 -91 16 -47 0 -57 21 -49 104 7 83 -9 129 -84 233 -30 42 -73
104 -96 137 -134 198 -239 240 -374 151 -75 -50 -125 -56 -176 -21 -116 79
-140 76 -260 -34 -40 -36 -67 -53 -87 -54 -15 -1 -28 -3 -27 -6 1 -3 -2 -7 -7
-10 -13 -8 -16 206 -4 287 13 90 5 134 -32 172 -29 29 -42 33 -128 46 -64 10
-97 44 -124 126 -31 98 -54 119 -132 119 -33 0 -86 7 -116 15 -30 8 -76 15
-102 15 -26 0 -59 5 -74 10 -37 14 -58 5 -71 -30 -20 -53 -63 -36 -63 26 0 13
-3 24 -7 25 -204 18 -255 39 -97 39 73 0 106 -4 120 -15 25 -19 54 -19 54 0 0
13 30 15 213 14 142 -1 217 -5 226 -13 12 -8 13 -8 7 2 -4 7 -1 12 9 12 9 0
13 -4 10 -10 -4 -7 3 -7 20 0 19 7 24 7 19 -2 -5 -8 -2 -9 10 -5 18 7 56 -20
56 -40 0 -7 7 -13 15 -13 17 0 41 -39 36 -59 -2 -12 0 -13 12 -3 15 13 17 28
6 47 -12 21 -18 45 -11 45 8 0 38 -61 35 -72 -2 -3 4 -9 12 -12 8 -3 15 -2 15
3 0 4 10 7 22 5 13 -1 23 -3 23 -4 0 -1 10 -3 21 -5 23 -5 56 19 67 48 3 9 12
17 19 16 9 0 9 -2 1 -5 -8 -4 -9 -14 -1 -37 5 -18 10 -45 9 -62 -1 -23 1 -26
9 -15 7 12 9 10 7 -8 0 -12 -5 -22 -9 -22 -4 0 -8 -5 -8 -11 0 -5 5 -7 12 -3
6 4 8 3 5 -3 -4 -6 0 -13 7 -16 9 -4 14 -18 14 -36 -1 -17 -5 -28 -10 -25 -4
3 -8 0 -8 -5 0 -6 6 -12 13 -12 15 -2 48 -6 65 -7 6 -1 12 -6 12 -11 0 -5 -14
-7 -31 -4 -23 3 -30 1 -27 -9 3 -8 19 -12 41 -12 21 1 37 -3 37 -8 0 -5 5 -6
12 -2 6 4 8 3 4 -4 -3 -6 6 -15 21 -21 27 -10 27 -10 4 -8 -19 1 -26 -4 -30
-21 l-6 -22 -13 21 c-8 12 -9 18 -3 14 17 -10 13 21 -4 35 -8 7 -22 9 -31 6
-14 -5 -14 -7 1 -22 19 -19 16 -35 -11 -49 -35 -19 -27 -35 11 -19 32 13 35
13 45 -5 5 -11 10 -26 10 -35 0 -22 31 -50 40 -36 10 16 42 19 59 6 12 -9 14
-8 9 5 -5 13 -2 16 13 12 10 -3 19 -10 19 -16 0 -6 7 -2 14 9 14 17 13 20 -12
31 -19 8 -33 8 -47 0 -17 -9 -18 -8 -8 5 7 8 10 18 6 21 -3 4 -1 7 5 7 5 0 19
3 29 6 15 5 15 4 3 -4 -12 -9 -10 -13 11 -20 34 -13 81 -18 95 -10 7 5 9 -4 6
-24 -3 -21 -1 -29 6 -24 6 4 16 -3 22 -14 7 -13 7 -20 0 -20 -5 0 -10 8 -11
18 0 10 -3 12 -6 4 -7 -17 -23 -5 -23 19 0 16 -5 19 -27 15 -16 -2 -31 -5 -35
-5 -5 -1 -8 -5 -8 -10 0 -5 8 -7 19 -4 21 5 61 -32 61 -56 0 -20 -15 -43 -26
-42 -5 1 -10 -8 -10 -19 -2 -26 12 -26 19 1 3 12 10 18 16 14 6 -3 11 0 11 9
0 22 22 26 44 7 18 -15 18 -15 5 9 -8 14 -14 32 -14 40 0 18 17 40 27 34 3 -2
4 4 1 15 -3 10 0 22 6 25 14 9 59 -42 66 -76 7 -32 39 -55 51 -36 4 6 3 8 -2
5 -6 -3 -15 -2 -22 2 -10 6 -8 13 6 32 23 29 25 60 4 57 -8 -2 -16 3 -18 10
-1 7 0 8 3 2 3 -6 11 -6 25 1 11 6 18 7 15 2 -3 -5 -2 -15 4 -23 7 -13 9 -12
9 3 0 20 18 23 26 4 9 -23 31 -15 28 10 -1 13 2 23 8 23 7 0 7 5 -1 13 -6 8
-7 18 -3 22 4 5 1 5 -6 1 -7 -5 -11 -13 -9 -20 2 -6 0 -20 -5 -31 -8 -18 -8
-18 -4 2 5 29 -8 37 -34 23 -16 -9 -20 -8 -20 5 0 9 4 14 9 10 5 -3 12 -1 16
4 3 6 12 8 19 5 12 -5 33 12 35 29 1 4 4 7 7 6 4 0 10 5 14 11 5 9 10 6 15 -9
8 -27 -2 -41 -15 -21 -8 12 -10 11 -10 -6 0 -17 5 -20 26 -16 19 3 24 9 21 23
-3 10 0 20 7 23 8 3 8 7 0 13 -12 9 -15 43 -3 43 3 0 9 -10 12 -22 l6 -22 29
27 c45 43 72 34 86 -28 11 -51 12 -54 19 -61 4 -4 7 2 7 14 0 12 4 22 9 22 11
0 8 -47 -4 -58 -4 -4 -5 -1 -1 5 5 9 2 11 -8 7 -27 -10 -7 -24 27 -19 18 3 27
3 21 0 -6 -3 -9 -18 -6 -33 3 -15 1 -24 -3 -20 -8 8 -35 -9 -35 -22 0 -3 7 -7
15 -7 8 0 12 4 9 9 -3 5 9 0 27 -10 17 -9 36 -28 40 -40 5 -13 5 -21 0 -18 -5
3 -11 -1 -15 -9 -3 -8 -10 -15 -16 -15 -7 0 -8 6 0 19 11 21 4 51 -12 51 -6 0
-8 -14 -6 -30 3 -22 0 -30 -11 -31 -13 -1 -12 -2 2 -6 9 -2 17 -9 17 -14 0 -6
-4 -7 -10 -4 -5 3 -7 0 -4 -9 3 -9 -2 -16 -13 -18 -14 -3 -11 -7 14 -18 17 -8
30 -17 28 -20 -2 -3 10 -6 26 -5 21 0 29 5 29 17 0 10 -6 18 -12 18 -9 0 -8 3
2 10 18 11 23 7 25 -23 2 -12 8 -21 14 -19 6 1 11 -3 11 -9 0 -5 4 -8 8 -5 5
3 9 -1 9 -9 0 -19 -5 -19 -23 0 -21 21 -34 19 -34 -5 0 -14 7 -20 21 -20 16 0
19 -4 14 -17 -4 -10 -10 -26 -12 -35 -3 -10 -10 -18 -17 -18 -6 0 -4 -5 4 -11
12 -8 9 -9 -9 -4 -21 6 -23 5 -17 -11 5 -11 9 -24 10 -31 1 -7 5 -15 8 -19 4
-3 4 -13 2 -22 -4 -13 -2 -12 6 2 7 10 8 21 4 25 -12 8 -14 41 -4 41 12 0 23
-57 14 -72 -5 -9 -4 -10 3 -3 15 14 25 65 14 65 -6 0 -8 6 -5 13 8 21 31 16
30 -6 -1 -11 5 -22 12 -25 9 -3 11 3 6 24 -5 19 -4 25 5 20 7 -5 11 1 11 16 1
21 2 21 11 5 8 -14 7 -21 -6 -31 -15 -11 -16 -13 -1 -26 14 -11 19 -10 31 6 8
10 15 14 15 7 0 -7 -10 -22 -22 -34 -17 -16 -19 -20 -6 -16 10 3 20 2 24 -4 4
-6 10 -4 17 5 15 20 40 7 27 -14 -8 -12 -10 -11 -10 5 -1 18 -2 18 -14 -4 -12
-22 -14 -23 -23 -6 -6 10 -13 13 -17 7 -5 -8 13 -22 34 -26 23 -5 29 -18 18
-41 -6 -14 -15 -25 -20 -25 -5 0 -6 -5 -3 -11 4 -6 13 -8 21 -5 8 3 14 2 14
-3 0 -5 -11 -12 -25 -15 -18 -5 -25 -13 -25 -31 0 -14 5 -25 10 -25 13 0 13
-47 0 -55 -6 -4 -17 -2 -24 5 -11 8 -15 8 -19 -2 -4 -10 -7 -10 -15 1 -5 7
-12 9 -15 5 -3 -5 7 -18 21 -28 14 -11 22 -14 18 -8 -4 7 1 10 14 9 13 -1 16
-5 10 -11 -6 -6 -10 -16 -10 -23 0 -14 -41 -59 -51 -56 -3 1 -11 -8 -18 -20
-11 -17 -11 -19 0 -10 8 9 16 9 25 2 9 -7 11 -5 10 8 0 10 5 17 13 15 9 -2 11
3 7 13 -9 23 26 15 42 -10 12 -19 12 -18 6 5 -4 14 -10 26 -15 28 -9 4 0 32
17 49 6 7 15 9 19 5 4 -4 2 3 -4 16 -10 18 -9 22 4 22 8 0 15 -4 15 -10 0 -5
10 -14 22 -21 18 -10 20 -9 15 5 -4 9 -2 16 4 16 6 0 8 4 5 9 -7 11 34 2 52
-12 6 -5 12 -6 12 -1 1 5 7 -2 14 -15 8 -15 16 -20 20 -12 4 6 3 11 -3 11 -6
0 -8 7 -5 15 4 9 0 15 -10 15 -10 0 -13 5 -9 17 5 12 8 13 11 4 4 -11 6 -11
13 0 6 10 9 10 9 2 0 -7 6 -10 14 -7 8 3 24 -4 35 -15 12 -12 28 -21 36 -21
10 0 15 -10 15 -31 0 -19 4 -28 11 -24 6 4 8 14 5 22 -3 8 -1 11 4 8 6 -3 10
-13 10 -21 0 -8 5 -12 10 -9 6 3 10 2 10 -4 0 -13 -41 -11 -59 3 -11 9 -13 8
-9 -4 3 -8 13 -16 24 -16 36 -3 39 -5 17 -14 -23 -9 -32 -40 -13 -40 5 0 7 7
4 15 -6 13 17 21 48 16 4 0 5 6 1 15 -3 8 4 29 16 45 12 16 19 35 15 42 -4 6
2 4 13 -6 11 -9 22 -14 26 -11 3 3 13 -9 22 -26 12 -23 13 -30 3 -25 -10 6
-11 5 -1 -5 8 -9 9 -18 3 -25 -6 -7 -3 -11 9 -11 12 0 17 5 13 15 -4 10 1 13
21 9 16 -3 28 0 31 8 3 8 11 14 18 13 10 0 10 -2 1 -6 -7 -2 -13 -11 -13 -19
0 -7 6 -11 13 -8 8 3 19 -1 25 -8 13 -17 4 -68 -14 -75 -8 -3 -14 -13 -14 -22
0 -11 3 -12 8 -4 5 9 11 9 22 0 20 -16 21 -44 3 -51 -10 -4 -13 -1 -9 12 4 12
1 19 -8 19 -8 0 -15 -3 -14 -6 2 -20 -4 -32 -14 -30 -34 4 -42 -1 -23 -15 11
-8 16 -19 12 -30 -7 -19 8 -22 17 -3 4 8 8 9 11 1 3 -6 12 -20 20 -30 13 -18
14 -17 13 14 -1 27 -5 32 -25 32 -13 0 -22 4 -18 9 5 9 42 7 52 -3 2 -2 5 -13
6 -25 1 -11 5 -21 9 -21 4 0 0 -9 -9 -19 -9 -11 -23 -17 -32 -14 -14 4 -14 3
-1 -6 13 -9 13 -11 0 -11 -9 0 -16 -10 -16 -26 -3 -35 -10 -39 -37 -21 -22 14
-24 14 -36 -6 -10 -16 -10 -19 -1 -10 8 7 19 8 29 3 9 -4 28 -13 44 -21 25
-11 39 -32 18 -26 -5 1 -9 -1 -10 -5 -1 -5 1 -8 4 -8 3 0 10 0 16 0 5 0 9 8 8
18 -1 9 -1 22 0 28 2 17 43 25 58 12 14 -12 16 -8 7 16 -7 18 -36 21 -65 5
-17 -9 -20 -7 -17 8 3 18 17 33 31 33 5 0 5 -5 1 -11 -5 -8 1 -10 20 -7 14 3
26 1 26 -3 0 -5 5 -9 11 -9 5 0 7 5 3 12 -4 7 -3 8 4 4 6 -4 9 -13 5 -21 -3
-10 1 -15 15 -15 12 0 24 -5 27 -10 4 -6 11 -8 16 -5 5 4 9 -6 9 -20 0 -15 9
-39 20 -55 11 -15 17 -30 13 -34 -13 -13 -11 -57 3 -63 16 -6 19 -53 3 -53 -5
0 -7 -5 -4 -10 3 -6 -4 -14 -17 -19 -23 -10 -23 -10 -1 -10 12 -1 29 9 38 22
14 19 18 20 28 7 17 -21 57 -42 57 -31 0 5 -9 13 -20 16 -11 4 -18 11 -15 16
4 5 -1 12 -9 15 -9 3 -16 14 -17 23 0 13 -2 12 -10 -4 l-9 -20 1 20 c2 34 -1
46 -8 42 -5 -3 -8 9 -7 26 1 29 4 32 34 35 18 2 37 -1 43 -7 18 -18 31 -13 16
6 -11 13 -11 17 -1 20 18 7 15 20 -6 25 -10 3 -19 12 -19 21 0 17 23 31 37 22
4 -3 11 2 14 11 5 12 2 15 -9 10 -16 -6 -16 11 0 62 6 18 10 20 16 10 7 -10
12 -11 29 -1 25 16 33 16 24 1 -4 -6 -3 -8 4 -4 10 6 9 36 -3 55 -3 5 -1 12 5
16 6 4 8 11 5 16 -4 5 1 9 9 9 9 0 16 9 16 21 0 11 -5 17 -10 14 -6 -3 -13 1
-16 9 -3 9 -10 16 -16 16 -5 0 -7 -4 -3 -9 3 -5 1 -12 -5 -16 -10 -6 -11 -5
-15 31 -1 12 -5 26 -9 33 -5 7 -1 9 8 5 18 -7 20 4 7 25 -21 33 7 51 97 63 6
1 12 6 13 12 0 6 4 1 9 -12 5 -12 15 -22 22 -21 10 0 10 2 1 6 -20 8 -15 22 6
16 14 -3 20 2 23 21 3 15 1 29 -3 32 -5 3 -9 -4 -9 -15 0 -13 -6 -21 -17 -21
-11 0 -14 3 -7 8 6 4 10 17 9 29 -1 18 2 20 15 13 10 -5 21 -6 25 -2 3 4 5 1
3 -7 -2 -7 3 -16 11 -19 10 -3 12 0 7 13 -5 15 -4 16 9 5 8 -7 15 -9 15 -6 0
4 11 -6 24 -21 15 -17 24 -22 24 -13 -2 38 3 83 8 77 4 -3 7 -27 9 -52 2 -36
-1 -45 -15 -45 -23 0 -31 -10 -18 -24 9 -10 16 -8 30 6 11 11 17 25 15 31 -2
7 3 18 12 25 15 11 15 12 0 7 -12 -4 -15 0 -13 17 1 13 3 30 3 40 1 11 7 15
20 11 13 -3 23 2 30 16 9 16 9 21 -1 22 -9 0 -8 2 2 6 8 4 21 12 28 20 19 19
33 16 39 -7 3 -11 9 -17 14 -14 5 3 6 11 2 17 -4 6 -8 20 -8 31 -2 18 -1 18
12 1 7 -11 13 -25 13 -33 0 -7 5 -10 10 -7 6 3 10 1 10 -5 0 -6 4 -9 9 -6 5 4
11 0 14 -6 3 -10 8 -9 22 2 17 13 18 13 10 0 -10 -16 -12 -21 -14 -45 0 -8 -6
-15 -12 -15 -6 0 -9 9 -6 20 3 13 -1 24 -14 30 -13 7 -19 7 -19 0 0 -5 5 -10
10 -10 7 0 7 -7 -1 -21 -9 -17 -8 -20 2 -14 8 6 11 4 7 -6 -4 -11 2 -14 27
-11 26 3 32 8 28 22 -6 23 16 37 29 19 7 -11 8 -9 5 6 -2 11 -9 19 -15 18 -7
-2 -12 1 -12 6 0 18 19 22 41 9 16 -10 23 -10 26 -1 6 16 33 5 33 -13 0 -11
-7 -13 -27 -8 -16 4 -24 3 -20 -2 5 -5 14 -9 20 -9 7 0 12 -10 11 -22 0 -19 2
-21 14 -10 13 10 14 9 3 -10 -6 -13 -9 -23 -5 -23 4 0 -1 -9 -11 -20 -10 -11
-13 -20 -7 -20 7 0 12 -7 12 -15 0 -8 5 -15 11 -15 5 0 7 5 3 11 -3 6 0 16 7
21 11 8 10 9 -3 4 -23 -7 -23 10 -1 18 15 6 15 8 3 16 -8 6 -10 10 -4 10 16 0
12 82 -4 99 -7 7 -11 20 -8 28 3 8 1 11 -4 8 -6 -3 -10 5 -10 19 0 16 6 26 14
26 8 0 18 5 22 12 4 7 3 8 -4 4 -7 -4 -13 -2 -13 3 -1 6 -3 16 -4 21 -1 6 -3
15 -4 21 0 5 -6 7 -13 3 -6 -4 -16 0 -22 8 -6 8 -19 17 -28 21 -10 3 -18 13
-18 21 0 10 -6 13 -16 9 -14 -5 -14 -3 -3 16 16 24 31 29 23 6 -4 -8 -1 -15 5
-15 17 0 26 29 13 42 -15 15 -3 38 18 38 11 0 22 5 25 10 4 6 9 8 13 6 4 -2 7
12 8 31 1 33 21 58 49 58 6 0 16 4 23 8 8 5 12 2 12 -8 0 -9 -4 -13 -10 -10
-5 3 -10 2 -10 -4 0 -6 -8 -7 -17 -4 -16 6 -17 5 -3 -11 14 -17 16 -17 40 13
32 38 36 38 53 5 12 -22 15 -24 20 -10 4 10 3 15 -3 11 -16 -10 -12 12 6 29 8
9 20 14 25 11 5 -4 9 -1 9 5 0 19 -45 6 -51 -15 -5 -19 -5 -19 -11 3 -5 17 0
26 20 38 23 12 23 14 5 9 -19 -5 -22 -3 -17 12 4 12 3 14 -3 6 -13 -18 -79 14
-88 41 -6 19 -8 19 -12 3 -2 -9 -8 -15 -13 -12 -13 8 1 47 16 41 7 -3 18 2 25
10 10 12 9 13 -6 8 -14 -6 -16 -4 -8 12 6 10 8 25 6 32 -3 6 0 12 7 12 6 0 8
5 5 11 -4 5 0 18 8 27 7 9 17 25 20 34 4 10 11 18 17 18 6 0 8 -4 5 -10 -3 -5
-1 -10 5 -10 6 0 8 -5 5 -10 -4 -6 -10 -8 -15 -5 -5 3 -13 -3 -19 -13 -8 -15
-6 -18 17 -16 45 3 48 4 32 15 -11 8 -12 12 -3 16 10 3 8 9 -4 21 -19 20 -53
25 -53 8 -1 -25 -25 31 -26 59 0 39 15 57 36 42 9 -7 8 -4 -3 9 -9 11 -14 24
-10 29 5 4 2 5 -5 1 -7 -4 -10 -11 -7 -16 3 -5 1 -11 -4 -14 -5 -3 -12 1 -15
10 -5 14 -9 14 -24 3 -14 -11 -15 -11 -4 1 17 19 15 30 -5 31 -11 0 -13 3 -5
6 6 2 10 9 7 13 -3 5 4 7 15 5 22 -4 26 11 9 35 -9 13 -10 12 -5 -2 7 -23 -10
-23 -18 -1 -6 14 -9 15 -15 4 -6 -10 -10 -9 -14 4 -4 9 -3 13 2 10 5 -3 12 -1
16 5 3 5 1 10 -5 10 -7 0 -9 7 -6 16 5 14 4 15 -8 5 -12 -10 -13 -8 -9 10 5
16 3 20 -6 15 -8 -5 -14 0 -18 14 -3 13 -11 19 -19 16 -8 -3 -14 -1 -14 5 0 6
-11 20 -25 31 -14 11 -25 26 -25 33 0 7 11 22 25 33 14 11 25 25 25 31 0 6 6
8 14 5 8 -3 16 3 19 16 4 14 10 19 18 14 9 -5 11 -1 6 15 -4 18 -3 20 9 10 12
-10 13 -9 8 5 -3 9 -1 16 6 16 6 0 8 5 5 10 -4 6 -11 8 -16 5 -5 -3 -6 1 -2
10 4 13 8 14 14 4 6 -11 9 -10 15 4 8 22 25 22 18 0 -5 -15 -4 -16 5 -3 17 24
13 39 -9 35 -11 -2 -18 0 -15 5 3 4 -1 11 -7 13 -8 3 -6 6 5 6 20 1 22 12 5
31 -11 12 -10 12 4 1 15 -11 19 -11 24 3 3 9 10 13 15 10 5 -3 7 -9 4 -14 -3
-5 0 -12 7 -16 7 -4 10 -3 5 1 -4 5 1 18 10 29 11 13 12 16 3 9 -21 -15 -36 3
-36 42 1 28 25 84 26 59 0 -17 34 -12 53 8 12 12 14 18 4 21 -9 4 -8 8 3 16
16 11 13 12 -32 15 -23 2 -25 -1 -17 -16 6 -10 14 -16 19 -13 5 3 11 1 15 -5
3 -5 1 -10 -5 -10 -6 0 -8 -4 -5 -10 3 -5 1 -10 -5 -10 -6 0 -13 8 -17 18 -3
9 -13 25 -20 34 -8 9 -12 22 -8 27 3 6 1 11 -5 11 -7 0 -10 6 -7 13 2 6 0 21
-6 31 -8 16 -6 18 8 12 15 -5 16 -4 6 8 -7 8 -18 13 -25 10 -15 -6 -29 33 -16
41 5 3 11 -3 13 -12 4 -16 6 -16 12 3 9 27 75 59 88 41 6 -8 7 -6 3 6 -5 15
-2 17 17 12 18 -5 18 -3 -5 9 -20 12 -25 21 -20 38 6 22 6 22 11 3 6 -21 51
-34 51 -15 0 6 -4 9 -9 5 -5 -3 -17 2 -25 11 -18 17 -22 39 -6 29 6 -4 7 1 3
11 -5 14 -8 12 -20 -10 -17 -33 -21 -33 -53 5 -24 30 -26 30 -40 13 -14 -16
-13 -17 3 -11 9 3 17 2 17 -4 0 -6 5 -7 10 -4 6 3 10 -1 10 -10 0 -10 -4 -13
-12 -8 -7 4 -17 8 -23 8 -28 0 -48 25 -49 58 -1 19 -4 33 -8 31 -4 -2 -9 0
-13 6 -3 5 -14 10 -25 10 -21 0 -33 23 -18 38 13 13 4 42 -13 42 -6 0 -9 -7
-5 -15 8 -23 -7 -18 -23 6 -11 19 -11 21 3 16 10 -4 16 -1 16 9 0 8 8 18 18
21 9 4 22 13 28 21 6 8 16 12 22 8 7 -4 13 -2 13 3 1 6 3 16 4 21 1 6 3 15 4
21 0 5 6 7 13 3 7 -4 8 -3 4 4 -4 7 -14 12 -22 12 -8 0 -14 10 -14 26 0 14 4
22 10 19 5 -3 7 0 4 8 -3 8 1 21 8 28 16 17 20 99 4 99 -6 0 -4 4 4 10 12 8
12 10 -3 16 -22 8 -22 25 1 18 13 -5 14 -4 3 4 -7 5 -10 15 -7 21 4 6 2 11 -3
11 -6 0 -11 -7 -11 -15 0 -8 -5 -15 -12 -15 -6 0 -3 -9 7 -20 10 -11 15 -20
11 -20 -4 0 -1 -10 5 -22 11 -20 10 -21 -3 -11 -12 11 -14 9 -14 -10 1 -12 -4
-22 -11 -22 -6 0 -15 -4 -20 -9 -4 -5 4 -6 20 -2 20 5 27 3 27 -8 0 -18 -27
-29 -33 -13 -3 9 -10 9 -26 -1 -22 -13 -41 -9 -41 9 0 5 5 8 12 6 6 -1 13 7
15 18 3 15 2 17 -5 6 -13 -18 -35 -4 -29 19 4 14 -2 19 -28 22 -25 3 -31 0
-27 -11 4 -10 1 -12 -7 -6 -10 6 -11 3 -2 -14 8 -14 8 -21 1 -21 -5 0 -10 -5
-10 -10 0 -7 6 -7 19 0 13 6 17 17 14 30 -3 11 0 20 6 20 6 0 12 -7 12 -15 2
-24 4 -29 14 -45 8 -13 7 -13 -10 0 -14 11 -19 12 -22 2 -3 -6 -9 -10 -14 -6
-5 3 -9 0 -9 -6 0 -6 -4 -8 -10 -5 -5 3 -10 0 -10 -7 0 -8 -6 -22 -13 -33 -13
-17 -14 -17 -12 1 0 11 4 25 8 31 4 6 3 14 -2 17 -5 3 -11 -3 -14 -14 -6 -24
-20 -25 -41 -5 -8 8 -21 15 -28 16 -10 0 -10 2 -1 6 21 8 -5 46 -28 40 -13 -4
-19 0 -20 11 0 10 -2 27 -3 40 -2 17 1 21 13 17 15 -5 15 -4 0 7 -9 7 -14 18
-12 25 2 6 -4 20 -15 31 -14 14 -21 16 -30 6 -13 -14 -5 -24 18 -24 14 0 17
-9 15 -45 -2 -25 -5 -49 -9 -52 -5 -6 -10 39 -8 77 0 9 -9 4 -24 -13 -13 -15
-24 -25 -24 -21 0 3 -7 1 -15 -6 -13 -11 -14 -10 -9 5 5 13 3 16 -7 13 -8 -3
-13 -12 -11 -19 2 -8 0 -11 -3 -7 -4 4 -15 3 -25 -2 -13 -7 -16 -5 -15 13 1
12 -3 25 -9 29 -7 5 -4 8 7 8 11 0 17 -8 17 -21 0 -11 4 -18 9 -15 4 3 6 17 3
32 -3 19 -9 24 -23 21 -21 -6 -26 8 -6 16 9 4 9 6 -1 6 -7 1 -17 -9 -22 -21
-5 -13 -9 -18 -9 -12 -1 6 -7 11 -13 12 -90 12 -118 30 -97 63 13 21 11 32 -7
25 -9 -4 -13 -2 -8 5 4 7 8 21 9 33 4 36 5 37 15 31 6 -4 8 -11 5 -16 -4 -5
-2 -9 3 -9 6 0 13 7 16 16 3 8 10 12 16 9 5 -3 10 3 10 14 0 12 -7 21 -16 21
-8 0 -13 4 -9 9 3 5 1 12 -5 16 -6 4 -8 11 -5 16 12 19 13 49 3 55 -7 4 -8 2
-4 -4 9 -15 1 -15 -24 1 -17 10 -22 9 -29 -1 -6 -10 -10 -8 -16 10 -16 51 -16
68 0 62 11 -5 14 -2 9 10 -3 9 -10 14 -14 11 -14 -9 -37 5 -37 22 0 9 9 18 19
21 21 5 24 18 6 25 -10 3 -10 7 1 20 15 19 2 24 -16 6 -6 -6 -25 -9 -43 -7
-30 3 -33 6 -34 35 -1 17 2 29 7 26 7 -4 10 8 8 42 l-1 20 9 -20 c8 -16 10
-17 10 -4 1 9 8 20 17 23 8 3 13 10 9 15 -3 5 4 12 15 16 11 3 20 11 20 16 0
11 -40 -10 -57 -31 -10 -13 -14 -12 -28 8 -9 12 -26 22 -38 21 -22 0 -22 0 1
-10 13 -5 20 -13 17 -19 -3 -5 -1 -10 4 -10 16 0 13 -47 -3 -53 -14 -6 -16
-50 -3 -63 4 -4 -2 -19 -13 -34 -11 -16 -20 -40 -20 -55 0 -14 -4 -24 -9 -20
-5 3 -12 1 -16 -5 -3 -5 -15 -10 -27 -10 -14 0 -18 -5 -15 -15 4 -8 1 -17 -5
-21 -7 -4 -8 -3 -4 4 4 7 2 12 -3 12 -6 0 -11 -4 -11 -9 0 -4 -12 -6 -26 -3
-19 3 -25 1 -20 -7 4 -6 4 -11 -1 -11 -14 0 -28 15 -31 33 -3 15 0 17 17 8 19
-11 61 -15 61 -7 0 2 3 13 7 23 6 15 4 16 -8 6 -17 -14 -58 -6 -60 11 -1 6 -1
19 0 29 1 9 -3 17 -8 17 -6 0 -13 0 -16 0 -3 0 -4 -3 -2 -7 1 -5 5 -7 10 -5
20 6 3 -16 -20 -27 -16 -8 -35 -17 -44 -21 -10 -5 -21 -4 -29 3 -9 9 -9 6 1
-10 12 -20 14 -20 36 -6 27 18 34 14 37 -21 0 -16 7 -26 16 -26 13 0 13 -2 0
-11 -13 -9 -13 -10 1 -6 9 3 23 -3 32 -14 9 -10 13 -19 9 -19 -4 0 -8 -10 -9
-21 -1 -12 -4 -23 -6 -25 -10 -10 -47 -12 -52 -3 -4 5 5 9 18 9 20 0 24 5 25
33 1 30 0 31 -13 13 -8 -10 -17 -24 -20 -30 -3 -8 -7 -7 -11 2 -9 18 -24 15
-17 -4 4 -11 -1 -22 -12 -30 -19 -14 -11 -19 23 -15 10 2 16 -10 14 -30 -1 -3
6 -6 14 -6 9 0 12 7 8 19 -4 13 -1 16 9 12 18 -7 17 -35 -3 -51 -11 -9 -17 -9
-22 0 -5 8 -8 7 -8 -4 0 -9 6 -19 14 -22 18 -7 27 -58 14 -75 -6 -7 -17 -11
-25 -8 -7 3 -13 -1 -13 -8 0 -8 6 -17 13 -19 9 -4 9 -6 -1 -6 -7 -1 -15 5 -18
13 -3 8 -15 11 -31 8 -20 -4 -25 -1 -21 9 4 10 -1 15 -13 15 -12 0 -15 -4 -9
-10 6 -6 5 -15 -3 -25 -10 -12 -9 -13 1 -7 10 6 9 -1 -3 -24 -9 -17 -19 -29
-22 -26 -4 3 -15 -2 -26 -11 -11 -10 -17 -12 -13 -6 4 7 -3 26 -15 42 -12 16
-19 37 -16 45 4 9 3 15 -1 15 -31 -5 -54 3 -48 16 3 8 1 15 -4 15 -19 0 -10
-31 13 -40 22 -9 19 -11 -17 -14 -11 0 -21 -8 -24 -16 -4 -12 -2 -13 9 -4 18
14 59 16 59 3 0 -6 -4 -7 -10 -4 -5 3 -10 -1 -10 -9 0 -8 -4 -18 -10 -21 -5
-3 -7 0 -4 8 3 8 1 18 -5 22 -7 4 -11 -5 -11 -24 0 -21 -5 -31 -15 -31 -8 0
-24 -9 -36 -21 -11 -11 -27 -18 -35 -15 -8 3 -14 0 -14 -7 0 -8 -3 -8 -9 2 -7
11 -9 11 -13 0 -3 -9 -6 -8 -11 4 -4 12 -1 17 9 17 10 0 14 6 10 15 -3 8 -1
15 5 15 6 0 7 5 3 11 -4 8 -12 3 -20 -12 -7 -13 -13 -20 -14 -15 0 5 -6 4 -12
-1 -18 -14 -59 -23 -52 -12 3 5 1 9 -5 9 -6 0 -8 7 -4 16 5 14 3 15 -15 5 -12
-7 -22 -16 -22 -21 0 -6 -7 -10 -15 -10 -13 0 -14 4 -4 23 6 12 8 19 4 15 -4
-4 -13 -2 -19 5 -17 17 -26 45 -17 49 5 2 11 14 15 28 6 23 6 24 -6 5 -16 -25
-51 -33 -42 -10 4 10 2 15 -7 13 -8 -2 -13 5 -12 16 1 13 -2 15 -10 7 -7 -7
-15 -7 -25 2 -13 10 -14 9 -2 -10 8 -12 16 -21 19 -20 10 3 51 -42 51 -56 0
-7 4 -17 10 -23 6 -6 3 -10 -10 -11 -13 -1 -18 2 -14 9 4 6 -4 3 -18 -8 -14
-10 -24 -23 -21 -28 3 -4 10 -2 15 5 8 11 11 11 15 1 4 -10 8 -10 19 -2 7 7
18 9 24 5 13 -8 13 -55 0 -55 -5 0 -10 -11 -10 -25 0 -18 7 -26 25 -31 14 -3
25 -10 25 -15 0 -5 -6 -6 -14 -3 -8 3 -17 1 -21 -5 -3 -6 -2 -11 3 -11 5 0 14
-11 20 -24 9 -20 8 -27 -5 -38 -9 -7 -18 -12 -20 -10 -2 1 -11 -1 -19 -6 -10
-6 -13 -12 -6 -16 5 -3 13 2 17 12 6 15 8 14 20 -8 13 -22 14 -23 15 -5 0 16
2 17 10 5 13 -21 -12 -34 -27 -14 -7 9 -13 11 -17 5 -4 -6 -14 -7 -24 -4 -13
4 -11 0 6 -16 12 -12 22 -27 22 -34 0 -7 -7 -3 -15 7 -12 16 -17 17 -31 6 -15
-13 -14 -15 1 -26 13 -10 14 -17 6 -31 -9 -16 -10 -16 -11 5 0 15 -4 21 -11
16 -9 -5 -10 1 -5 20 5 21 3 27 -6 24 -7 -3 -13 -14 -12 -25 1 -22 -22 -27
-30 -6 -3 7 -1 13 5 13 11 0 1 51 -14 65 -7 7 -8 6 -3 -3 9 -15 -2 -72 -14
-72 -10 0 -8 33 4 41 4 4 3 15 -4 25 -8 14 -10 15 -6 2 2 -9 2 -19 -2 -22 -3
-4 -7 -12 -8 -19 -1 -7 -5 -20 -10 -31 -6 -16 -4 -17 17 -11 18 5 21 4 9 -4
-8 -6 -10 -11 -4 -11 7 0 14 -8 17 -17 2 -10 8 -26 12 -35 5 -14 2 -18 -14
-18 -14 0 -21 -6 -21 -20 0 -24 13 -26 34 -5 18 19 23 19 23 0 0 -8 -4 -12 -9
-9 -4 3 -8 0 -8 -5 0 -6 -5 -10 -11 -8 -6 1 -12 -8 -14 -20 -2 -30 -7 -34 -25
-23 -10 7 -11 10 -2 10 6 0 12 8 12 18 0 12 -8 17 -29 17 -16 1 -28 -2 -26 -5
2 -3 -11 -12 -28 -20 -25 -11 -28 -15 -14 -18 11 -2 16 -9 13 -18 -3 -9 -1
-12 4 -9 6 3 10 1 10 -4 0 -6 -8 -12 -17 -12 -15 -1 -15 -2 -2 -6 11 -3 14
-12 11 -33 -2 -17 0 -30 6 -30 16 0 23 30 12 51 -8 13 -7 19 0 19 6 0 13 -7
16 -15 4 -8 10 -12 15 -9 5 3 5 -5 0 -18 -4 -12 -23 -31 -40 -40 -18 -10 -30
-15 -27 -10 3 5 -1 9 -9 9 -8 0 -15 -4 -15 -7 0 -13 27 -30 35 -22 4 4 6 -5 3
-20 -3 -15 0 -30 6 -33 6 -3 -3 -3 -21 0 -34 5 -54 -9 -27 -19 10 -4 13 -2 8
7 -4 6 -3 9 1 5 12 -11 15 -58 4 -58 -5 0 -9 10 -9 22 0 12 -3 18 -7 14 -7 -7
-8 -10 -19 -61 -14 -62 -41 -71 -86 -28 l-29 27 -6 -22 c-3 -12 -9 -22 -12
-22 -12 0 -9 34 3 43 8 6 8 10 0 13 -7 3 -10 13 -7 23 3 14 -2 20 -21 23 -21
4 -26 1 -26 -16 0 -17 2 -18 10 -6 13 20 23 6 15 -21 -5 -15 -10 -18 -15 -9
-4 6 -10 11 -14 11 -3 -1 -5 1 -3 2 6 9 -28 37 -39 33 -7 -3 -16 -1 -19 5 -4
5 -11 7 -16 4 -5 -4 -9 1 -9 10 0 13 4 14 20 5 26 -14 39 -6 34 23 -4 20 -4
20 4 2 5 -11 7 -25 5 -31 -2 -7 2 -15 9 -20 7 -4 10 -4 6 1 -4 4 -3 14 3 22 8
8 8 13 1 13 -6 0 -9 11 -8 23 3 25 -19 33 -28 10 -8 -19 -26 -16 -26 5 0 14
-2 15 -9 2 -6 -8 -7 -18 -4 -23 3 -5 -4 -4 -15 2 -14 7 -22 7 -25 1 -3 -6 -4
-5 -3 2 2 7 10 12 18 10 21 -3 19 28 -4 57 -14 19 -16 26 -6 32 7 4 16 5 22 2
5 -3 6 -1 2 5 -12 19 -44 -4 -51 -36 -7 -34 -52 -85 -66 -76 -6 3 -9 15 -6 25
3 11 2 17 -1 15 -10 -6 -27 16 -27 34 0 8 6 26 14 40 13 24 13 24 -5 9 -22
-19 -44 -15 -44 7 0 9 -5 12 -11 9 -6 -4 -13 2 -16 14 -7 27 -21 27 -19 1 0
-11 5 -20 10 -19 11 1 26 -22 26 -42 0 -24 -40 -61 -61 -56 -11 3 -19 1 -19
-4 0 -5 3 -9 8 -10 4 0 19 -3 35 -5 22 -4 27 -1 27 15 0 24 16 36 23 19 3 -8
6 -6 6 5 1 9 6 17 11 17 7 0 7 -7 0 -20 -6 -11 -16 -18 -22 -14 -7 5 -9 -3 -6
-24 3 -20 1 -29 -6 -24 -14 8 -61 3 -95 -10 -21 -7 -23 -11 -11 -20 12 -8 12
-9 -3 -4 -10 3 -24 6 -29 6 -6 0 -8 3 -5 7 4 3 1 13 -6 21 -10 13 -9 14 8 5
14 -8 28 -8 47 0 25 11 26 14 12 31 -7 11 -14 15 -14 9 0 -6 -9 -13 -19 -16
-15 -4 -18 -1 -13 12 5 13 3 14 -9 5 -17 -13 -49 -10 -59 6 -9 14 -40 -14 -40
-36 0 -9 -5 -24 -10 -35 -10 -18 -13 -18 -45 -5 -38 16 -46 0 -11 -19 27 -14
30 -30 11 -49 -15 -15 -15 -17 -1 -22 9 -3 23 -1 31 6 17 14 21 45 4 35 -6 -4
-5 2 3 14 l13 21 6 -22 c4 -17 11 -22 30 -21 23 2 23 2 -4 -8 -15 -6 -24 -15
-21 -21 4 -7 2 -8 -4 -4 -7 4 -12 3 -12 -2 0 -5 -16 -9 -37 -8 -22 0 -38 -4
-41 -12 -3 -10 4 -12 27 -9 17 3 31 1 31 -4 0 -5 -6 -10 -12 -11 -17 -1 -50
-5 -65 -7 -7 0 -13 -6 -13 -12 0 -5 4 -8 8 -5 5 3 9 -8 10 -25 0 -18 -5 -32
-14 -36 -7 -3 -11 -10 -7 -16 3 -6 1 -7 -5 -3 -7 4 -12 2 -12 -3 0 -6 4 -11 8
-11 4 0 9 -10 9 -22 2 -18 0 -20 -7 -8 -8 11 -10 8 -9 -15 1 -16 -4 -44 -9
-62 -8 -23 -7 -33 1 -37 8 -3 8 -5 -1 -5 -7 -1 -16 7 -19 17 -11 28 -44 52
-67 47 -11 -2 -21 -4 -21 -5 0 -1 -10 -3 -22 -4 -13 -2 -23 1 -23 5 0 5 -7 6
-15 3 -8 -3 -14 -9 -12 -12 3 -11 -27 -72 -36 -72 -5 0 -6 3 -4 8 7 13 20 47
23 59 1 7 -5 18 -13 25 -12 10 -14 9 -12 -3 5 -20 -19 -59 -36 -59 -8 0 -15
-6 -15 -13 0 -20 -38 -47 -56 -40 -12 4 -15 3 -10 -5 5 -9 0 -9 -19 -2 -17 7
-24 7 -20 0 3 -6 -1 -10 -10 -10 -10 0 -13 5 -9 13 6 9 5 9 -7 1 -9 -8 -84
-12 -226 -13 -183 -1 -213 1 -213 14 0 19 -29 19 -54 0 -14 -11 -47 -15 -120
-15 -158 0 -107 21 97 39 4 1 7 12 7 25 0 62 43 79 63 26 13 -35 34 -44 71
-30 15 5 48 10 74 10 26 0 72 7 102 15 30 8 83 15 116 15 78 0 101 21 132 119
27 82 60 116 124 126 86 13 99 17 128 46 37 38 45 82 32 172 -12 81 -9 288 4
285 5 -2 8 -5 7 -8 -1 -3 12 -5 27 -6 20 -1 47 -18 87 -54 120 -110 144 -113
260 -34 51 35 101 29 176 -21 135 -89 240 -47 374 151 23 33 66 95 96 137 75
104 91 150 84 233 -8 83 2 104 49 104 20 0 61 7 91 16 47 14 66 14 138 3 74
-11 89 -10 128 5 77 29 113 82 137 201 17 85 34 111 95 150 68 44 90 73 105
137 21 85 -1 278 -32 278 -4 0 -8 7 -8 15 0 8 7 15 16 15 9 0 12 -5 8 -12z
m234 -451 c15 0 16 -13 2 -22 -6 -4 -8 -10 -6 -14 3 -4 -2 -8 -10 -8 -8 0 -13
6 -10 13 3 7 -2 15 -10 18 -8 3 -14 10 -14 17 0 7 7 8 18 4 9 -4 23 -8 30 -8z
m5 -89 c-2 -5 1 -8 8 -8 7 0 9 -3 6 -6 -4 -4 -13 -1 -21 5 -8 7 -20 10 -26 6
-14 -9 -13 3 2 19 9 9 15 10 24 2 7 -6 10 -14 7 -18z m99 -104 c-13 -23 -3
-54 20 -63 19 -7 19 -8 2 -22 -10 -7 -15 -9 -11 -3 4 7 0 14 -8 18 -8 3 -15
14 -15 25 0 11 -6 21 -12 24 -9 3 -7 10 7 21 26 20 28 20 17 0z m-342 -138 c0
-11 -19 -15 -25 -6 -3 5 1 10 9 10 9 0 16 -2 16 -4z m310 -56 c0 -5 -5 -10
-11 -10 -5 0 -7 5 -4 10 3 6 8 10 11 10 2 0 4 -4 4 -10z m-270 -20 c6 -11 17
-20 25 -20 7 0 17 -5 21 -12 4 -7 3 -8 -5 -4 -6 4 -17 3 -24 -2 -12 -10 -44
-8 -55 2 -3 3 2 6 12 6 18 0 19 29 1 42 -6 5 -5 8 2 8 7 0 17 -9 23 -20z m244
-15 c-4 -11 1 -15 17 -15 20 -1 21 -2 8 -10 -9 -5 -28 -6 -44 -2 -26 7 -27 9
-11 25 21 21 37 22 30 2z m-313 -28 c-10 -9 -11 -8 -5 6 3 10 9 15 12 12 3 -3
0 -11 -7 -18z m360 -10 c-10 -9 -11 -8 -5 6 3 10 9 15 12 12 3 -3 0 -11 -7
-18z m47 9 c-7 -8 -17 -12 -22 -9 -4 3 -2 9 5 14 22 13 31 11 17 -5z m-476 -4
c3 8 7 6 11 -6 4 -10 3 -15 -3 -11 -6 3 -10 1 -10 -6 0 -8 -4 -8 -15 1 -8 7
-15 17 -15 22 0 6 6 6 14 -1 11 -9 15 -9 18 1z m-177 -62 c3 -5 -1 -10 -9 -10
-9 0 -16 5 -16 10 0 6 4 10 9 10 6 0 13 -4 16 -10z m-35 -32 c0 -6 -6 -5 -15
2 -8 7 -15 14 -15 16 0 2 7 1 15 -2 8 -4 15 -11 15 -16z m37 6 c-3 -3 -12 -4
-19 -1 -8 3 -5 6 6 6 11 1 17 -2 13 -5z m-291 -31 c-6 -15 -9 -15 -16 -3 -6 9
-5 17 3 22 16 10 21 2 13 -19z m1214 -17 c0 -5 -7 -3 -15 4 -8 7 -15 9 -15 4
0 -11 -20 18 -20 29 0 4 11 0 25 -10 13 -10 25 -22 25 -27z m-1000 13 c-7 -11
-14 -18 -17 -15 -3 3 0 12 7 21 18 21 23 19 10 -6z m-210 -31 c0 -5 -4 -6 -10
-3 -5 3 -10 1 -10 -5 0 -17 -23 -7 -26 11 -1 12 5 15 22 11 13 -2 24 -9 24
-14z m164 -3 c3 -9 0 -15 -8 -15 -7 0 -13 7 -13 15 0 8 4 15 8 15 4 0 9 -7 13
-15z m1356 -15 c0 -5 -4 -10 -9 -10 -5 0 -8 -15 -7 -32 2 -18 7 -32 14 -31 6
2 10 -5 9 -15 0 -11 -9 -18 -21 -19 -12 -1 -15 1 -9 4 10 3 10 10 2 24 -17 32
-19 60 -6 74 14 17 27 19 27 5z m-1515 -39 c-9 -16 26 -42 49 -36 18 5 19 5 4
-5 -23 -14 -25 -14 -55 10 -23 17 -25 23 -13 30 19 12 23 12 15 1z m1325 -11
c0 -5 -7 -10 -16 -10 -8 0 -12 5 -9 10 3 6 10 10 16 10 5 0 9 -4 9 -10z
m-1310 -60 c0 -5 -2 -10 -4 -10 -3 0 -8 5 -11 10 -3 6 -1 10 4 10 6 0 11 -4
11 -10z m1464 -5 c3 -8 1 -15 -4 -15 -6 0 -10 7 -10 15 0 8 2 15 4 15 2 0 6
-7 10 -15z m-44 -37 c0 -9 -23 -16 -37 -10 -21 7 -14 17 12 17 14 0 25 -3 25
-7z m90 -214 c0 -8 -5 -12 -10 -9 -6 4 -8 11 -5 16 9 14 15 11 15 -7z m-1777
-18 c-7 -26 -12 -30 -22 -16 -15 22 -13 29 7 26 9 -2 16 -6 15 -10z m1887 -61
c-7 -9 -15 -13 -17 -11 -6 6 20 36 26 30 2 -2 -2 -10 -9 -19z m-2282 -77 c15
-15 16 -28 2 -28 -5 0 -9 6 -7 13 1 6 -4 11 -10 10 -7 -2 -13 2 -13 7 0 14 13
13 28 -2z m-28 -72 c0 -7 -6 -13 -13 -13 -7 0 -13 8 -13 18 0 9 6 15 13 12 7
-3 13 -11 13 -17z m363 -99 c4 3 7 4 7 0 0 -18 -21 -14 -30 5 -10 21 -10 21 3
6 8 -10 17 -15 20 -11z m-26 -32 c0 -8 -4 -15 -9 -15 -10 0 -11 14 -1 23 9 10
10 9 10 -8z m-117 -21 c0 -8 -5 -12 -10 -9 -6 4 -8 11 -5 16 9 14 15 11 15 -7z
m116 -33 c-1 -16 -5 -33 -9 -37 -4 -4 -5 8 -3 27 6 41 5 39 10 39 2 0 3 -13 2
-29z m-81 10 c-3 -5 -1 -12 5 -16 14 -9 13 -25 -2 -25 -7 0 -14 11 -14 25 -1
14 2 25 8 25 5 0 7 -4 3 -9z m30 -62 c4 -6 13 -8 21 -5 8 3 14 0 15 -7 0 -7 3
-24 5 -39 7 -45 -29 -33 -40 12 -1 3 -7 15 -14 28 -12 22 0 33 13 11z m33
-124 c-3 -3 -9 2 -12 12 -6 14 -5 15 5 6 7 -7 10 -15 7 -18z m-1085 -92 c4 -3
2 -12 -4 -20 -13 -15 -59 -18 -59 -2 0 5 4 8 9 5 5 -3 14 1 21 9 14 16 23 19
33 8z m-903 -23 c12 -8 9 -10 -13 -10 -16 0 -26 4 -22 10 8 12 16 12 35 0z
m-53 -6 c-3 -3 -12 -4 -19 -1 -8 3 -5 6 6 6 11 1 17 -2 13 -5z m0 -20 c-3 -3
-12 -4 -19 -1 -8 3 -5 6 6 6 11 1 17 -2 13 -5z m50 -5 c-14 -8 -22 -8 -30 0
-8 8 -3 11 19 11 25 -1 27 -2 11 -11z m902 -3 c18 -21 -6 -32 -28 -12 -10 9
-21 13 -24 9 -4 -3 -7 -1 -7 5 0 17 45 15 59 -2z m1082 -129 c-10 -9 -11 -8
-5 6 3 10 9 15 12 12 3 -3 0 -11 -7 -18z m15 -54 c-2 -16 -5 -33 -5 -40 -1 -7
-7 -10 -15 -7 -8 3 -17 1 -21 -5 -13 -22 -25 -11 -13 12 7 12 13 24 14 27 11
45 47 57 40 13z m10 -104 c2 -38 -8 -29 -13 13 -2 17 0 28 4 24 4 -4 8 -21 9
-37z m-66 22 c0 -6 -5 -13 -10 -16 -6 -4 -8 -11 -5 -16 4 -5 2 -9 -3 -9 -6 0
-9 11 -8 25 1 23 26 38 26 16z m-50 -57 c0 -8 -5 -12 -10 -9 -6 4 -8 11 -5 16
9 14 15 11 15 -7z m117 -19 c0 -8 -4 -12 -9 -9 -4 3 -8 9 -8 15 0 5 4 9 8 9 5
0 9 -7 9 -15z m29 -27 c4 -7 4 -10 -1 -6 -4 4 -14 0 -22 -10 -13 -15 -13 -15
-3 6 12 25 16 27 26 10z m-366 -104 c0 -6 -6 -14 -13 -17 -7 -3 -13 3 -13 12
0 10 6 18 13 18 7 0 13 -6 13 -13z m40 -52 c0 -4 -5 -13 -12 -20 -15 -15 -28
-16 -28 -2 0 6 6 9 13 8 6 -2 11 3 10 10 -2 6 2 12 7 12 6 0 10 -4 10 -8z
m2280 -114 c0 -5 -7 -3 -15 6 -8 8 -15 18 -15 22 0 3 7 1 15 -6 8 -7 15 -17
15 -22z m-1900 -28 c0 -5 1 -13 3 -17 1 -3 -6 -7 -15 -9 -20 -3 -20 -2 -12 20
7 18 24 22 24 6z m1780 -36 c0 -8 -5 -12 -10 -9 -6 4 -8 11 -5 16 9 14 15 11
15 -7z m-90 -213 c0 -3 -11 -6 -25 -6 -26 0 -34 10 -12 18 14 5 37 -2 37 -12z
m44 -36 c-4 -8 -8 -15 -10 -15 -2 0 -4 7 -4 15 0 8 4 15 10 15 5 0 7 -7 4 -15z
m-1464 -5 c0 -5 -5 -10 -11 -10 -5 0 -7 5 -4 10 3 6 8 10 11 10 2 0 4 -4 4
-10z m1507 -22 c1 -10 -3 -17 -10 -15 -14 3 -17 -56 -3 -65 6 -4 7 -10 4 -14
-4 -3 -14 0 -22 9 -16 16 -15 42 3 76 8 14 8 21 -2 24 -6 3 -3 5 9 4 12 -1 21
-8 21 -19z m-1457 -16 c3 -3 -5 -2 -16 2 -23 7 -59 -18 -49 -35 4 -5 -1 -6 -9
-3 -21 8 -20 11 12 39 27 23 30 23 62 -3z m1260 -22 c0 -5 -4 -10 -9 -10 -6 0
-13 5 -16 10 -3 6 1 10 9 10 9 0 16 -4 16 -10z m-1350 -61 c0 -5 5 -7 10 -4 6
3 10 2 10 -3 0 -5 -11 -12 -24 -14 -22 -4 -25 2 -17 30 3 7 21 0 21 -9z m184
-4 c-4 -8 -9 -15 -13 -15 -4 0 -8 7 -8 15 0 8 6 15 13 15 8 0 11 -6 8 -15z
m47 -37 c11 -21 11 -22 -4 -9 -10 7 -17 17 -17 22 0 15 9 10 21 -13z m978 -7
c-13 -11 -25 -18 -27 -17 -6 7 11 35 18 31 5 -3 12 0 15 6 4 5 9 8 12 5 3 -3
-5 -14 -18 -25z m-1189 -6 c0 -8 -6 -12 -14 -9 -8 3 -12 12 -9 20 6 17 23 9
23 -11z m250 -14 c0 -5 -7 -12 -16 -15 -14 -5 -15 -4 -4 9 14 17 20 19 20 6z
m37 -7 c-3 -3 -12 -4 -19 -1 -8 3 -5 6 6 6 11 1 17 -2 13 -5z m-2 -24 c-3 -5
-10 -10 -16 -10 -5 0 -9 5 -9 10 0 6 7 10 16 10 8 0 12 -4 9 -10z m186 -45 c5
4 6 -2 2 -11 -4 -12 -8 -14 -11 -6 -3 10 -7 10 -18 1 -17 -14 -19 2 -2 19 8 8
14 9 16 2 2 -5 8 -8 13 -5z m427 -30 c-3 -3 -9 2 -12 12 -6 14 -5 15 5 6 7 -7
10 -15 7 -18z m47 -3 c-6 -7 -34 11 -29 19 3 5 11 3 19 -4 7 -6 12 -13 10 -15z
m-407 -7 c-3 -3 -9 2 -12 12 -6 14 -5 15 5 6 7 -7 10 -15 7 -18z m80 12 c6 -5
17 -5 24 -1 7 4 8 3 4 -4 -4 -7 -14 -12 -21 -12 -8 0 -19 -9 -25 -20 -6 -11
-16 -20 -23 -20 -7 0 -8 3 -2 8 18 13 17 42 -2 42 -14 0 -15 2 -4 9 15 10 30
9 49 -2z m252 3 c12 -8 10 -10 -9 -10 -16 0 -21 -4 -17 -15 7 -20 -9 -19 -30
2 -16 17 -16 18 7 24 34 10 32 10 49 -1z m0 -60 c0 -5 -2 -10 -4 -10 -3 0 -8
5 -11 10 -3 6 -1 10 4 10 6 0 11 -4 11 -10z m-315 -50 c3 -5 -1 -10 -10 -10
-9 0 -13 5 -10 10 3 6 8 10 10 10 2 0 7 -4 10 -10z m367 -81 c-23 -9 -33 -40
-20 -63 9 -15 7 -16 -11 -4 -22 14 -28 28 -11 28 6 0 10 9 10 20 0 11 7 23 15
26 8 4 12 11 8 18 -4 6 1 4 11 -3 17 -14 17 -15 -2 -22z m-112 -159 c-8 -5
-11 -10 -7 -10 4 0 2 -6 -5 -13 -10 -11 -15 -12 -25 -1 -17 17 -16 25 1 18 8
-3 17 -1 21 5 3 6 12 11 18 11 7 0 6 -4 -3 -10z m-16 -61 c-2 -4 0 -10 6 -14
14 -9 13 -22 -2 -22 -7 0 -21 -4 -30 -8 -11 -4 -18 -3 -18 4 0 7 6 14 14 17 8
3 13 11 10 18 -3 7 2 13 10 13 8 0 13 -4 10 -8z"/>
<path d="M3120 4680 c-9 -6 -10 -10 -3 -10 6 0 15 5 18 10 8 12 4 12 -15 0z"/>
<path d="M3140 4582 c0 -12 9 -26 20 -32 13 -7 20 -21 20 -39 0 -18 5 -28 15
-28 8 0 15 4 15 9 0 4 -4 8 -10 8 -5 0 -10 8 -10 19 0 10 -7 24 -15 31 -8 7
-13 16 -10 20 3 4 -2 13 -10 20 -12 10 -15 9 -15 -8z"/>
<path d="M3337 4488 c-3 -9 1 -22 9 -29 12 -10 15 -10 12 2 -2 8 3 13 10 11 8
-1 11 2 7 8 -3 6 -10 8 -15 5 -4 -3 -10 0 -12 7 -3 8 -7 6 -11 -4z"/>
<path d="M3250 4370 c0 -5 5 -10 10 -10 6 0 10 5 10 10 0 6 -4 10 -10 10 -5 0
-10 -4 -10 -10z"/>
<path d="M3244 4333 c4 -24 22 -27 22 -3 0 11 -6 20 -12 20 -7 0 -11 -8 -10
-17z"/>
<path d="M3138 4312 c-15 -14 -16 -17 -1 -27 26 -20 8 -55 -30 -56 -18 0 -25
-3 -17 -6 8 -3 18 -10 21 -16 4 -5 16 -6 29 -2 15 5 20 13 17 26 -3 10 -1 22
5 25 5 3 7 13 4 21 -4 9 1 17 14 20 11 3 17 10 14 15 -3 5 -13 7 -21 4 -8 -3
-11 -1 -8 4 9 15 -8 10 -27 -8z"/>
<path d="M3400 4181 c0 -10 -9 -21 -20 -24 -11 -3 -18 -2 -15 3 3 4 -2 11 -11
14 -22 9 -23 8 -17 -13 7 -26 53 -34 76 -14 9 9 17 11 17 6 0 -6 7 -13 15 -17
10 -4 15 1 15 14 0 11 -5 20 -11 20 -5 0 -7 -5 -3 -12 5 -7 3 -8 -5 -3 -7 4
-11 15 -8 24 3 11 -2 17 -14 18 -12 1 -19 -5 -19 -16z"/>
<path d="M3470 4139 c0 -5 5 -7 10 -4 6 3 10 8 10 11 0 2 -4 4 -10 4 -5 0 -10
-5 -10 -11z"/>
<path d="M3385 3952 c-6 -6 4 -22 15 -22 4 0 10 6 13 13 5 13 -17 20 -28 9z"/>
<path d="M2510 3895 c9 -10 4 -17 -19 -31 -31 -19 -36 -26 -25 -37 4 -3 15 5
26 18 11 14 25 25 31 25 6 0 1 -7 -11 -16 -12 -8 -20 -19 -17 -24 3 -4 -1 -10
-7 -13 -10 -3 -10 -8 1 -21 8 -9 20 -15 27 -12 8 3 18 -3 23 -12 9 -15 12 -16
37 -2 34 19 36 32 7 36 -13 2 -23 -1 -23 -7 0 -5 4 -8 9 -4 5 3 13 0 17 -6 10
-16 -46 -2 -64 16 -12 11 -11 17 2 36 19 30 15 62 -8 65 -13 2 -15 -1 -6 -11z"/>
<path d="M2810 3830 c0 -5 5 -10 10 -10 6 0 10 -8 10 -17 0 -15 2 -16 10 -3 5
8 10 10 10 4 0 -7 7 -14 15 -18 29 -11 15 23 -17 38 -37 19 -38 19 -38 6z"/>
<path d="M3606 3824 c-8 -22 1 -31 16 -16 9 9 9 15 1 23 -7 7 -12 5 -17 -7z"/>
<path d="M2450 3810 c0 -5 5 -10 11 -10 5 0 7 5 4 10 -3 6 -8 10 -11 10 -2 0
-4 -4 -4 -10z"/>
<path d="M4090 3741 c0 -6 -6 -8 -14 -5 -17 7 -30 -24 -16 -41 5 -6 7 -15 3
-18 -3 -4 -1 -7 6 -7 7 0 10 -4 7 -9 -3 -5 1 -12 10 -15 26 -10 26 -7 -2 29
-15 20 -25 37 -23 38 2 2 15 8 28 13 17 7 21 13 13 18 -7 4 -12 3 -12 -3z"/>
<path d="M2215 3481 c-3 -5 -1 -12 5 -16 5 -3 10 1 10 9 0 18 -6 21 -15 7z"/>
<path d="M2252 3478 c-7 -7 -12 -18 -12 -25 0 -7 -4 -13 -10 -13 -5 0 -10 -5
-10 -12 0 -6 3 -8 7 -5 3 4 13 1 21 -6 13 -10 15 -9 10 4 -4 9 -1 22 5 29 9
10 9 11 0 6 -7 -4 -13 -3 -13 3 0 5 6 11 13 14 6 2 9 7 6 10 -3 4 -11 1 -17
-5z"/>
<path d="M3964 3408 c-3 -4 4 -8 15 -8 12 0 21 -4 21 -8 0 -17 26 -8 27 10 1
10 -3 18 -8 18 -6 0 -7 -4 -4 -10 3 -5 1 -10 -4 -10 -6 0 -11 4 -11 8 0 5 -7
9 -15 9 -9 0 -18 -4 -21 -9z"/>
<path d="M2270 3400 c0 -5 5 -10 10 -10 6 0 10 5 10 10 0 6 -4 10 -10 10 -5 0
-10 -4 -10 -10z"/>
<path d="M2280 3370 c0 -5 9 -10 21 -10 11 0 17 5 14 10 -3 6 -13 10 -21 10
-8 0 -14 -4 -14 -10z"/>
<path d="M4191 3314 c0 -11 3 -14 6 -6 3 7 2 16 -1 19 -3 4 -6 -2 -5 -13z"/>
<path d="M1265 3310 c-8 -13 9 -20 24 -11 10 6 9 10 -3 14 -8 3 -18 2 -21 -3z"/>
<path d="M1670 3286 c0 -14 -18 -21 -42 -17 -5 0 -8 -3 -8 -8 0 -6 9 -9 20 -8
26 2 56 32 41 42 -6 3 -11 -1 -11 -9z"/>
<path d="M1270 3270 c0 -5 -8 -10 -17 -10 -15 0 -14 -2 3 -15 10 -8 15 -15 9
-15 -7 0 -7 -3 0 -8 6 -4 15 -16 21 -27 6 -11 20 -20 30 -21 29 -2 54 -15 54
-29 0 -7 7 -18 16 -26 8 -7 13 -21 11 -31 -3 -10 0 -18 7 -18 8 0 12 11 11 28
-3 42 -4 45 -20 38 -9 -3 -15 0 -15 9 0 16 20 16 33 0 4 -6 13 -3 22 9 14 18
20 15 16 -8 -2 -11 32 -36 41 -30 14 9 9 24 -7 24 -8 0 -15 9 -15 19 0 19 -14
22 -38 7 -7 -4 -19 -2 -28 5 -13 10 -17 10 -26 -2 -7 -10 -8 -6 -4 16 4 18 3
25 -2 17 -11 -16 -50 -24 -57 -11 -4 5 -11 6 -17 3 -7 -5 -9 2 -6 19 3 16 0
28 -8 31 -8 3 -11 12 -8 21 3 8 3 15 0 15 -3 0 -6 -4 -6 -10z"/>
<path d="M1743 3159 c-13 -13 -6 -42 8 -33 5 3 9 -7 9 -22 0 -21 3 -25 11 -17
9 9 8 18 -5 38 -9 14 -14 30 -11 35 8 13 2 13 -12 -1z"/>
<path d="M2185 3160 c-3 -5 -1 -10 4 -10 6 0 11 5 11 10 0 6 -2 10 -4 10 -3 0
-8 -4 -11 -10z"/>
<path d="M4096 3162 c-2 -4 4 -8 14 -9 11 -1 22 2 25 8 4 5 -3 9 -14 9 -11 0
-22 -4 -25 -8z"/>
<path d="M1511 3124 c0 -11 3 -14 6 -6 3 7 2 16 -1 19 -3 4 -6 -2 -5 -13z"/>
<path d="M2169 3097 c6 -8 8 -17 4 -20 -3 -4 1 -7 10 -7 20 0 22 11 5 28 -16
16 -33 15 -19 -1z"/>
<path d="M1375 3050 c-3 -5 -1 -10 4 -10 6 0 11 5 11 10 0 6 -2 10 -4 10 -3 0
-8 -4 -11 -10z"/>
<path d="M1400 3049 c0 -5 5 -7 10 -4 6 3 10 8 10 11 0 2 -4 4 -10 4 -5 0 -10
-5 -10 -11z"/>
<path d="M4170 3035 c0 -8 4 -15 10 -15 5 0 7 7 4 15 -4 8 -8 15 -10 15 -2 0
-4 -7 -4 -15z"/>
<path d="M1240 2942 c0 -5 8 -20 19 -33 10 -13 22 -38 25 -56 6 -26 4 -34 -13
-42 -16 -9 -18 -16 -11 -39 l8 -29 -53 0 c-44 0 -52 3 -48 18 3 9 -1 20 -8 24
-7 5 -10 4 -7 -1 3 -5 2 -19 -2 -30 -10 -26 -60 -30 -61 -5 0 10 -2 11 -6 4
-2 -7 -9 -13 -14 -13 -6 0 -8 4 -5 9 3 5 -6 21 -21 37 -15 16 -26 30 -25 32 1
1 0 2 -3 2 -6 0 -5 -9 2 -27 3 -7 8 -11 12 -8 4 2 13 -12 20 -31 7 -19 16 -32
21 -29 5 3 12 0 17 -7 11 -17 63 -18 63 -1 0 7 5 13 11 13 5 0 8 -4 5 -8 -3
-5 5 -8 17 -7 12 1 28 -2 35 -8 6 -5 12 -6 12 -1 0 5 5 2 10 -6 7 -11 14 -12
27 -4 21 13 22 82 2 95 -11 7 -10 9 4 9 9 0 17 5 17 10 0 6 7 10 15 10 19 0
19 14 2 32 -8 7 -12 19 -9 26 2 6 -1 12 -8 12 -6 0 -9 4 -6 9 3 5 14 7 24 4
13 -3 18 2 18 16 0 12 -4 21 -8 21 -4 0 -8 -4 -8 -9 0 -21 -35 -22 -52 -1 -10
12 -18 18 -18 12z"/>
<path d="M1000 2850 c0 -5 5 -10 11 -10 5 0 7 5 4 10 -3 6 -8 10 -11 10 -2 0
-4 -4 -4 -10z"/>
<path d="M876 2625 c4 -8 8 -15 10 -15 2 0 4 7 4 15 0 8 -4 15 -10 15 -5 0 -7
-7 -4 -15z"/>
<path d="M876 2505 c-3 -8 -1 -15 4 -15 6 0 10 7 10 15 0 8 -2 15 -4 15 -2 0
-6 -7 -10 -15z"/>
<path d="M1240 2429 c0 -5 -4 -8 -9 -4 -5 3 -12 1 -15 -4 -4 -5 -17 -8 -31 -7
-13 2 -22 -1 -19 -5 3 -5 0 -9 -5 -9 -6 0 -11 6 -11 13 0 17 -52 16 -63 -1 -5
-7 -12 -10 -17 -7 -5 3 -14 -10 -21 -29 -7 -19 -16 -33 -20 -31 -4 3 -9 -1
-12 -8 -7 -18 -8 -27 -2 -27 3 0 4 1 3 3 -1 1 10 15 25 31 15 16 24 32 21 37
-3 5 -1 9 5 9 5 0 12 -6 14 -12 4 -8 6 -7 6 3 1 25 51 21 61 -5 4 -11 5 -25 2
-30 -3 -5 0 -6 7 -1 7 4 11 15 8 24 -4 15 4 18 48 18 l53 0 -8 -29 c-7 -23 -5
-30 11 -39 17 -8 19 -16 13 -42 -3 -18 -15 -43 -25 -56 -11 -13 -19 -28 -19
-33 0 -6 8 0 18 12 17 21 52 20 52 -1 0 -5 4 -9 8 -9 4 0 8 9 8 21 0 14 -5 19
-18 16 -10 -3 -21 -1 -24 4 -3 5 0 9 6 9 7 0 10 6 8 12 -3 7 1 19 9 26 17 18
17 32 -2 32 -8 0 -15 5 -15 10 0 6 -8 10 -17 10 -14 0 -15 2 -4 9 15 9 20 69
7 89 -9 15 -36 16 -36 1z"/>
<path d="M1000 2279 c0 -5 5 -7 10 -4 6 3 10 8 10 11 0 2 -4 4 -10 4 -5 0 -10
-5 -10 -11z"/>
<path d="M4170 2095 c0 -8 2 -15 4 -15 2 0 6 7 10 15 3 8 1 15 -4 15 -6 0 -10
-7 -10 -15z"/>
<path d="M1375 2080 c3 -5 8 -10 11 -10 2 0 4 5 4 10 0 6 -5 10 -11 10 -5 0
-7 -4 -4 -10z"/>
<path d="M1400 2080 c0 -5 5 -10 11 -10 5 0 7 5 4 10 -3 6 -8 10 -11 10 -2 0
-4 -4 -4 -10z"/>
<path d="M1397 2042 c2 -10 -3 -24 -11 -31 -9 -8 -16 -19 -16 -26 0 -14 -25
-27 -54 -29 -10 -1 -24 -10 -30 -21 -6 -11 -15 -23 -21 -27 -7 -5 -7 -8 0 -8
6 0 1 -7 -9 -15 -16 -12 -17 -15 -4 -15 9 0 18 -3 21 -7 2 -5 2 -2 1 5 -2 7 2
15 10 18 8 3 11 15 8 31 -3 17 -1 24 6 19 6 -3 13 -2 17 3 7 13 46 5 57 -11 5
-8 6 -1 2 17 -4 22 -3 26 4 16 9 -12 13 -12 26 -2 9 7 21 9 28 5 24 -15 38
-12 38 7 0 10 7 19 15 19 16 0 21 15 7 24 -9 6 -43 -19 -41 -30 4 -23 -2 -26
-16 -8 -9 12 -18 15 -22 9 -13 -16 -33 -16 -33 0 0 9 6 12 15 9 16 -7 17 -4
20 39 1 16 -3 27 -11 27 -7 0 -10 -8 -7 -18z"/>
<path d="M2173 2053 c4 -3 2 -12 -4 -20 -14 -16 3 -17 19 -1 17 17 15 28 -5
28 -9 0 -13 -3 -10 -7z"/>
<path d="M1760 2026 c0 -15 -4 -25 -9 -22 -17 11 -20 -22 -3 -36 11 -9 14 -9
9 -1 -5 7 0 24 9 38 13 20 14 29 5 38 -8 8 -11 4 -11 -17z"/>
<path d="M1511 2004 c0 -11 3 -14 6 -6 3 7 2 16 -1 19 -3 4 -6 -2 -5 -13z"/>
<path d="M2185 1970 c3 -5 8 -10 11 -10 2 0 4 5 4 10 0 6 -5 10 -11 10 -5 0
-7 -4 -4 -10z"/>
<path d="M4096 1968 c3 -4 14 -8 25 -8 11 0 18 4 14 9 -3 6 -14 9 -25 8 -10
-1 -16 -5 -14 -9z"/>
<path d="M1620 1869 c0 -5 3 -8 8 -8 24 4 42 -3 42 -17 0 -8 5 -12 11 -9 15
10 -15 40 -41 42 -11 1 -20 -2 -20 -8z"/>
<path d="M1265 1830 c-8 -13 9 -20 24 -11 10 6 9 10 -3 14 -8 3 -18 2 -21 -3z"/>
<path d="M4191 1814 c0 -11 3 -14 6 -6 3 7 2 16 -1 19 -3 4 -6 -2 -5 -13z"/>
<path d="M2280 1760 c0 -5 6 -10 14 -10 8 0 18 5 21 10 3 6 -3 10 -14 10 -12
0 -21 -4 -21 -10z"/>
<path d="M4000 1738 c0 -4 -10 -8 -22 -8 -12 0 -18 -3 -14 -7 10 -11 36 -12
36 -2 0 5 5 9 11 9 5 0 7 -4 4 -10 -3 -5 -2 -10 4 -10 5 0 9 8 8 18 -1 18 -27
27 -27 10z"/>
<path d="M2270 1730 c0 -5 5 -10 10 -10 6 0 10 5 10 10 0 6 -4 10 -10 10 -5 0
-10 -4 -10 -10z"/>
<path d="M2245 1710 c-4 -6 -11 -8 -16 -5 -5 4 -9 1 -9 -4 0 -6 5 -11 10 -11
6 0 10 -6 10 -14 0 -7 7 -19 15 -26 10 -9 15 -9 15 -1 0 6 -4 11 -10 11 -5 0
-10 5 -10 11 0 5 6 7 13 3 9 -5 9 -4 0 6 -6 7 -9 19 -6 26 6 16 -3 19 -12 4z"/>
<path d="M2215 1661 c-3 -5 -1 -12 5 -16 5 -3 10 1 10 9 0 18 -6 21 -15 7z"/>
<path d="M4082 1483 c-6 -2 -10 -9 -6 -14 3 -5 0 -9 -7 -9 -7 0 -9 -3 -6 -7 4
-3 2 -12 -3 -18 -13 -16 -1 -48 16 -41 7 3 14 0 17 -7 2 -8 5 -8 11 1 4 7 -3
14 -19 18 -31 8 -31 9 1 51 24 32 23 37 -4 26z"/>
<path d="M2536 1355 c-3 -8 -11 -12 -19 -9 -8 3 -20 -3 -28 -12 -11 -13 -11
-18 -1 -21 6 -3 10 -9 7 -13 -3 -5 5 -16 17 -24 12 -9 17 -16 11 -16 -6 0 -20
11 -31 25 -11 13 -22 21 -26 18 -11 -11 -6 -18 25 -37 23 -14 28 -21 19 -31
-9 -10 -7 -13 6 -11 23 3 27 35 8 65 -13 19 -14 25 -2 36 18 18 74 32 64 16
-4 -6 -12 -9 -17 -6 -5 4 -9 1 -9 -4 0 -9 13 -9 50 -1 10 2 -42 40 -55 40 -7
0 -15 -7 -19 -15z"/>
<path d="M2857 1335 c-12 -11 -17 -12 -20 -2 -3 7 -6 6 -6 -5 -1 -9 -7 -18
-13 -21 -7 -2 -10 -7 -7 -11 9 -10 69 24 69 40 0 18 -5 18 -23 -1z"/>
<path d="M2450 1319 c0 -5 5 -7 10 -4 6 3 10 8 10 11 0 2 -4 4 -10 4 -5 0 -10
-5 -10 -11z"/>
<path d="M3600 1323 c1 -18 18 -35 24 -24 4 6 4 16 1 21 -7 12 -25 13 -25 3z"/>
<path d="M3385 1190 c-3 -5 -5 -10 -3 -11 29 -7 36 -5 31 7 -6 16 -19 18 -28
4z"/>
<path d="M3364 993 c-12 -2 -24 -13 -27 -24 -4 -15 -2 -19 10 -15 8 3 17 6 19
6 3 0 3 4 0 9 -4 5 3 7 14 4 11 -3 20 -14 20 -24 0 -11 7 -17 19 -16 12 1 17
7 14 18 -3 9 1 20 8 24 8 5 10 4 5 -3 -4 -7 -2 -12 3 -12 6 0 11 9 11 20 0 13
-5 18 -15 14 -8 -4 -15 -11 -15 -17 0 -5 -8 -3 -18 6 -10 10 -20 16 -23 16 -2
-1 -14 -4 -25 -6z"/>
<path d="M3470 990 c0 -5 5 -10 11 -10 5 0 7 5 4 10 -3 6 -8 10 -11 10 -2 0
-4 -4 -4 -10z"/>
<path d="M3110 921 c0 -5 -8 -12 -17 -14 -10 -3 -4 -5 14 -6 38 -1 56 -36 30
-56 -14 -10 -14 -13 4 -28 21 -19 33 -22 24 -7 -3 5 0 7 8 4 8 -3 18 -1 21 4
3 5 -3 12 -14 15 -13 3 -18 11 -14 20 3 8 1 18 -5 21 -6 4 -7 14 -4 22 6 16
-12 34 -34 34 -7 0 -13 -4 -13 -9z"/>
<path d="M3249 818 c-7 -23 -5 -38 5 -38 6 0 12 9 12 20 0 16 -13 29 -17 18z"/>
<path d="M3250 760 c0 -5 5 -10 10 -10 6 0 10 5 10 10 0 6 -4 10 -10 10 -5 0
-10 -4 -10 -10z"/>
<path d="M3342 667 c-7 -8 -7 -18 -2 -27 7 -11 10 -12 10 -2 0 7 4 11 9 7 5
-3 13 -1 16 5 4 6 1 9 -7 8 -7 -2 -12 3 -10 10 3 15 -3 15 -16 -1z"/>
<path d="M3180 619 c0 -18 -7 -32 -20 -39 -11 -6 -20 -20 -20 -32 0 -17 3 -18
15 -8 8 7 13 16 10 20 -3 4 2 13 10 20 8 7 15 21 15 31 0 11 5 19 10 19 6 0
10 4 10 8 0 5 -7 9 -15 9 -10 0 -15 -10 -15 -28z"/>
<path d="M3110 456 c0 -2 7 -7 16 -10 8 -3 12 -2 9 4 -6 10 -25 14 -25 6z"/>
</g>
</svg>
